#!OML:ASF G:\JayActor3\Patient Classification 1\Patient 1\Session 6\male.ASF
:FULLY-SPECIFIED
:DEGREES
2528
root 8.17766 15.1873 -19.8574 195.867 -54.0305 -180.492
lowerback 36.4916 -0.811743 1.39229
upperback 14.8578 -3.60112 -2.10324
thorax -2.03466 -2.7166 -1.69985
lowerneck -17.6822 -1.60429 1.06477
upperneck -12.1735 -3.45386 3.80871
head -0.927384 -2.38136 0.8842
rclavicle 2.14687e-014 4.41302e-014
rhumerus 27.8901 -5.11946 -7.50449
rradius 130.432
rwrist -66.6738
rhand -43.7165 -15.8062
rfingers 7.12502
rthumb -16.5482 -45.1206
lclavicle 2.14687e-014 4.41302e-014
lhumerus -8.64434 -8.20779 64.1805
lradius 64.0039
lwrist 27.9738
lhand -19.8205 9.7931
lfingers 7.12502
lthumb 6.51315 39.673
rfemur -55.531 -5.90467 23.9605
rtibia 64.3686
rfoot -25.2412 -17.9422
rtoes -4.33533
lfemur -54.3264 11.3941 -24.8314
ltibia 57.1786
lfoot -17.3539 8.57668
ltoes -2.43892
2529
root 8.18032 15.1878 -19.871 195.954 -54.0458 -180.604
lowerback 36.5516 -0.814795 1.41568
upperback 14.8426 -3.59586 -2.10608
thorax -2.07159 -2.71231 -1.7137
lowerneck -17.7601 -1.57906 1.11824
upperneck -11.887 -3.41542 3.77032
head -0.824719 -2.34524 0.85907
rclavicle 5.40694e-014 3.73715e-014
rhumerus 27.906 -4.8474 -7.57319
rradius 130.426
rwrist -66.5332
rhand -43.7176 -15.689
rfingers 7.12502
rthumb -16.5493 -45.0033
lclavicle 5.40694e-014 3.73715e-014
lhumerus -8.67693 -8.24019 64.1677
lradius 64.0099
lwrist 27.9597
lhand -19.7584 9.77873
lfingers 7.12502
lthumb 6.57301 39.6567
rfemur -55.5103 -5.90896 23.934
rtibia 64.3925
rfoot -25.2949 -17.9217
rtoes -4.26958
lfemur -54.3034 11.4299 -24.8652
ltibia 57.1683
lfoot -17.3173 8.53368
ltoes -2.55183
2530
root 8.18255 15.1883 -19.8845 196.032 -54.0604 -180.709
lowerback 36.6445 -0.823522 1.44565
upperback 14.7994 -3.59082 -2.11422
thorax -2.15047 -2.70621 -1.73377
lowerneck -17.8289 -1.5516 1.17529
upperneck -11.5643 -3.37119 3.74027
head -0.711631 -2.30367 0.836114
rclavicle -7.15625e-015 7.43455e-014
rhumerus 27.9189 -4.54278 -7.64372
rradius 130.418
rwrist -66.4153
rhand -43.7142 -15.5632
rfingers 7.12502
rthumb -16.546 -44.8778
lclavicle -7.15625e-015 7.43455e-014
lhumerus -8.74556 -8.28408 64.1583
lradius 64.0123
lwrist 27.9553
lhand -19.7116 9.76024
lfingers 7.12502
lthumb 6.61825 39.6368
rfemur -55.4841 -5.91277 23.9106
rtibia 64.4171
rfoot -25.3435 -17.9066
rtoes -4.21983
lfemur -54.2757 11.4723 -24.895
ltibia 57.1622
lfoot -17.2884 8.47936
ltoes -2.64368
2531
root 8.18444 15.1885 -19.8978 196.106 -54.077 -180.811
lowerback 36.7157 -0.828083 1.47106
upperback 14.7689 -3.58357 -2.116
thorax -2.2076 -2.70009 -1.74708
lowerneck -17.9095 -1.52244 1.22998
upperneck -11.2333 -3.32519 3.71279
head -0.593901 -2.26092 0.814553
rclavicle 5.56597e-015 -2.90226e-014
rhumerus 27.9441 -4.26394 -7.69895
rradius 130.403
rwrist -66.334
rhand -43.7097 -15.4421
rfingers 7.12502
rthumb -16.5417 -44.757
lclavicle 5.56597e-015 -2.90226e-014
lhumerus -8.79641 -8.30828 64.1591
lradius 64.0034
lwrist 27.9511
lhand -19.6718 9.74331
lfingers 7.12502
lthumb 6.6567 39.6187
rfemur -55.4596 -5.91816 23.8883
rtibia 64.4452
rfoot -25.3868 -17.8989
rtoes -4.1915
lfemur -54.2485 11.5156 -24.9228
ltibia 57.161
lfoot -17.2655 8.41556
ltoes -2.71452
2532
root 8.18592 15.1885 -19.9108 196.178 -54.0951 -180.912
lowerback 36.7636 -0.828445 1.49449
upperback 14.7517 -3.5733 -2.11204
thorax -2.24203 -2.69338 -1.75597
lowerneck -17.9976 -1.49323 1.29104
upperneck -10.8959 -3.28149 3.67306
head -0.473175 -2.21949 0.788171
rclavicle 3.57812e-014 3.37934e-014
rhumerus 27.976 -4.00156 -7.74421
rradius 130.38
rwrist -66.2762
rhand -43.7005 -15.3402
rfingers 7.12502
rthumb -16.5329 -44.6558
lclavicle 3.57812e-014 3.37934e-014
lhumerus -8.82991 -8.3197 64.1708
lradius 63.9871
lwrist 27.9582
lhand -19.6508 9.72452
lfingers 7.12502
lthumb 6.67695 39.5993
rfemur -55.4356 -5.92631 23.865
rtibia 64.4767
rfoot -25.4294 -17.8941
rtoes -4.17594
lfemur -54.2208 11.5568 -24.9495
ltibia 57.1654
lfoot -17.2499 8.34489
ltoes -2.76138
2533
root 8.18705 15.1883 -19.9236 196.249 -54.1209 -181.011
lowerback 36.7847 -0.827671 1.51845
upperback 14.7488 -3.56268 -2.09941
thorax -2.25145 -2.68735 -1.75796
lowerneck -18.0945 -1.46669 1.34279
upperneck -10.5465 -3.24024 3.62851
head -0.346797 -2.17848 0.761783
rclavicle -6.91771e-014 5.04913e-014
rhumerus 28.0208 -3.74926 -7.77911
rradius 130.347
rwrist -66.2305
rhand -43.6933 -15.2545
rfingers 7.12502
rthumb -16.526 -44.5707
lclavicle -6.91771e-014 5.04913e-014
lhumerus -8.84684 -8.31457 64.1948
lradius 63.9627
lwrist 27.9685
lhand -19.6429 9.70534
lfingers 7.12502
lthumb 6.68455 39.5798
rfemur -55.4135 -5.94038 23.8428
rtibia 64.5134
rfoot -25.4773 -17.8895
rtoes -4.15612
lfemur -54.1952 11.5891 -24.9728
ltibia 57.1759
lfoot -17.238 8.27095
ltoes -2.79308
2534
root 8.18806 15.1875 -19.9361 196.296 -54.1557 -181.083
lowerback 36.7959 -0.83003 1.55666
upperback 14.748 -3.55051 -2.07918
thorax -2.25519 -2.6802 -1.76048
lowerneck -18.182 -1.44468 1.39247
upperneck -10.1914 -3.20407 3.57522
head -0.219739 -2.13964 0.733092
rclavicle -1.43125e-014 -8.3092e-014
rhumerus 28.0684 -3.50141 -7.79956
rradius 130.314
rwrist -66.1965
rhand -43.6894 -15.2051
rfingers 7.12502
rthumb -16.5222 -44.5217
lclavicle -1.43125e-014 -8.3092e-014
lhumerus -8.86539 -8.30864 64.2257
lradius 63.9382
lwrist 27.9997
lhand -19.669 9.69628
lfingers 7.12502
lthumb 6.65939 39.5716
rfemur -55.3914 -5.95203 23.8374
rtibia 64.5541
rfoot -25.5313 -17.8922
rtoes -4.12922
lfemur -54.1756 11.6141 -24.9755
ltibia 57.1961
lfoot -17.2261 8.19877
ltoes -2.82349
2535
root 8.18865 15.1864 -19.9483 196.345 -54.1997 -181.163
lowerback 36.8032 -0.835773 1.59776
upperback 14.7496 -3.54152 -2.05646
thorax -2.25503 -2.67461 -1.76111
lowerneck -18.2625 -1.43023 1.43346
upperneck -9.83108 -3.17581 3.51922
head -0.0914153 -2.10424 0.704867
rclavicle -1.33583e-013 1.59028e-015
rhumerus 28.1186 -3.27356 -7.80445
rradius 130.278
rwrist -66.1829
rhand -43.6934 -15.1776
rfingers 7.12502
rthumb -16.5261 -44.4938
lclavicle -1.33583e-013 1.59028e-015
lhumerus -8.88168 -8.30345 64.2616
lradius 63.9095
lwrist 28.0332
lhand -19.7008 9.69769
lfingers 7.12502
lthumb 6.62866 39.5739
rfemur -55.3656 -5.97416 23.8261
rtibia 64.6028
rfoot -25.5967 -17.8882
rtoes -4.08211
lfemur -54.1525 11.6241 -24.9798
ltibia 57.224
lfoot -17.2175 8.13088
ltoes -2.84619
2536
root 8.18904 15.1848 -19.9606 196.383 -54.2479 -181.235
lowerback 36.8036 -0.840145 1.64115
upperback 14.756 -3.53056 -2.02952
thorax -2.2471 -2.66838 -1.75971
lowerneck -18.3444 -1.42446 1.46373
upperneck -9.46471 -3.15704 3.46909
head 0.0399562 -2.07312 0.679921
rclavicle -9.30312e-014 2.3059e-014
rhumerus 28.1637 -3.06694 -7.79448
rradius 130.241
rwrist -66.1779
rhand -43.702 -15.1571
rfingers 7.12502
rthumb -16.5343 -44.4727
lclavicle -9.30312e-014 2.3059e-014
lhumerus -8.89266 -8.2991 64.2994
lradius 63.8771
lwrist 28.0569
lhand -19.7219 9.70691
lfingers 7.12502
lthumb 6.6083 39.5838
rfemur -55.3374 -5.99158 23.8175
rtibia 64.658
rfoot -25.6705 -17.8869
rtoes -4.01657
lfemur -54.131 11.6272 -24.9765
ltibia 57.2628
lfoot -17.2098 8.07051
ltoes -2.87106
2537
root 8.18919 15.1823 -19.9729 196.426 -54.3017 -181.321
lowerback 36.8017 -0.844384 1.68134
upperback 14.7675 -3.52153 -2.00379
thorax -2.23288 -2.66343 -1.75759
lowerneck -18.4253 -1.43036 1.47953
upperneck -9.10042 -3.15113 3.4409
head 0.171841 -2.04816 0.663832
rclavicle 3.97569e-014 5.20816e-014
rhumerus 28.1999 -2.88835 -7.76901
rradius 130.209
rwrist -66.1864
rhand -43.7181 -15.1455
rfingers 7.12502
rthumb -16.5498 -44.4598
lclavicle 3.97569e-014 5.20816e-014
lhumerus -8.8953 -8.29807 64.3356
lradius 63.8417
lwrist 28.0605
lhand -19.724 9.71453
lfingers 7.12502
lthumb 6.6063 39.5915
rfemur -55.3071 -6.00116 23.7944
rtibia 64.7229
rfoot -25.7559 -17.8941
rtoes -3.93522
lfemur -54.1089 11.6184 -24.9802
ltibia 57.3122
lfoot -17.2013 8.02274
ltoes -2.91579
2538
root 8.189 15.1794 -19.9852 196.455 -54.3623 -181.401
lowerback 36.7987 -0.849877 1.72751
upperback 14.7851 -3.51338 -1.97757
thorax -2.21177 -2.65908 -1.7581
lowerneck -18.5086 -1.44381 1.48994
upperneck -8.74312 -3.15515 3.42604
head 0.302759 -2.02864 0.652499
rclavicle -8.90555e-014 1.15295e-014
rhumerus 28.227 -2.72899 -7.72982
rradius 130.182
rwrist -66.1999
rhand -43.7435 -15.1376
rfingers 7.12502
rthumb -16.5742 -44.4498
lclavicle -8.90555e-014 1.15295e-014
lhumerus -8.89091 -8.30478 64.3692
lradius 63.8091
lwrist 28.0601
lhand -19.7338 9.71635
lfingers 7.12502
lthumb 6.59677 39.5936
rfemur -55.2675 -6.0037 23.7708
rtibia 64.7923
rfoot -25.8483 -17.9132
rtoes -3.85481
lfemur -54.0842 11.6032 -24.9787
ltibia 57.3739
lfoot -17.1922 7.98148
ltoes -2.96557
2539
root 8.1887 15.1761 -19.9975 196.474 -54.4316 -181.474
lowerback 36.7941 -0.858198 1.77712
upperback 14.8063 -3.50818 -1.95103
thorax -2.18648 -2.65618 -1.75932
lowerneck -18.5825 -1.4627 1.495
upperneck -8.40578 -3.1661 3.43229
head 0.426655 -2.01349 0.648779
rclavicle -1.43125e-014 -7.95139e-016
rhumerus 28.2465 -2.56941 -7.68478
rradius 130.161
rwrist -66.2045
rhand -43.7759 -15.1329
rfingers 7.12502
rthumb -16.6054 -44.4426
lclavicle -1.43125e-014 -7.95139e-016
lhumerus -8.88504 -8.31332 64.3973
lradius 63.7817
lwrist 28.0458
lhand -19.7368 9.71518
lfingers 7.12502
lthumb 6.59394 39.5925
rfemur -55.222 -5.99964 23.7482
rtibia 64.8643
rfoot -25.9472 -17.9455
rtoes -3.77761
lfemur -54.0634 11.5836 -24.9736
ltibia 57.4477
lfoot -17.1768 7.94464
ltoes -3.04058
2540
root 8.18853 15.1725 -20.0096 196.482 -54.5079 -181.536
lowerback 36.7856 -0.868069 1.82789
upperback 14.8303 -3.5048 -1.92271
thorax -2.15683 -2.65429 -1.75896
lowerneck -18.6442 -1.47992 1.50842
upperneck -8.09819 -3.17776 3.43924
head 0.538981 -2.00079 0.644355
rclavicle 6.44062e-014 4.92986e-014
rhumerus 28.2564 -2.3921 -7.64431
rradius 130.147
rwrist -66.1806
rhand -43.8104 -15.1293
rfingers 7.12502
rthumb -16.6387 -44.4361
lclavicle 6.44062e-014 4.92986e-014
lhumerus -8.87934 -8.31752 64.4205
lradius 63.7614
lwrist 28.019
lhand -19.7226 9.70631
lfingers 7.12502
lthumb 6.60761 39.5832
rfemur -55.1746 -5.98972 23.7319
rtibia 64.9347
rfoot -26.0465 -17.9921
rtoes -3.71401
lfemur -54.0533 11.5646 -24.963
ltibia 57.5353
lfoot -17.153 7.90531
ltoes -3.13017
2541
root 8.18854 15.1691 -20.0216 196.495 -54.5947 -181.601
lowerback 36.7713 -0.882201 1.87335
upperback 14.8558 -3.50822 -1.89327
thorax -2.12367 -2.65586 -1.75269
lowerneck -18.6965 -1.49295 1.52393
upperneck -7.81338 -3.1853 3.44738
head 0.642505 -1.98746 0.640603
rclavicle -3.26007e-014 3.18055e-014
rhumerus 28.2704 -2.18191 -7.61323
rradius 130.128
rwrist -66.1199
rhand -43.8357 -15.1356
rfingers 7.12502
rthumb -16.6631 -44.4404
lclavicle -3.26007e-014 3.18055e-014
lhumerus -8.87958 -8.31561 64.4397
lradius 63.7513
lwrist 27.9926
lhand -19.7107 9.68881
lfingers 7.12502
lthumb 6.61905 39.5654
rfemur -55.1262 -5.98749 23.7148
rtibia 65.002
rfoot -26.1453 -18.0448
rtoes -3.66183
lfemur -54.0546 11.5427 -24.9573
ltibia 57.6356
lfoot -17.1178 7.85821
ltoes -3.24211
